<?xml version="1.0" encoding="UTF-8"?>
<svg id="uuid-f5bec1ce-303e-431f-b996-e43132cd3bae" data-name="ELEMENTS" xmlns="http://www.w3.org/2000/svg" width="29.2427" height="29.2428" viewBox="0 0 29.2427 29.2428">
  <defs>
    <style>
      .uuid-b1c8e8c0-7560-4da4-9270-65b7466c5f61 {
        fill: #fff;
      }
    </style>
  </defs>
  <circle cx="14.62132" cy="14.63653" r="14.62136"/>
  <g>
    <path class="uuid-b1c8e8c0-7560-4da4-9270-65b7466c5f61" d="M19.1599,9.10523c-.555,0-1.005,.45-1.005,1.005,0,.5551,.45,1.0051,1.005,1.0051,.5551,0,1.0051-.45,1.0051-1.0051,0-.555-.45-1.005-1.0051-1.005Z"/>
    <path class="uuid-b1c8e8c0-7560-4da4-9270-65b7466c5f61" d="M14.6917,10.39413c-2.328,0-4.222,1.8939-4.222,4.2219s1.894,4.2219,4.222,4.2219,4.2219-1.894,4.2219-4.2219-1.894-4.2219-4.2219-4.2219Zm0,6.9263c-1.4913,0-2.7045-1.2131-2.7045-2.7044s1.2132-2.7044,2.7045-2.7044c1.4912,0,2.7043,1.2131,2.7043,2.7044s-1.2131,2.7044-2.7043,2.7044Z"/>
    <path class="uuid-b1c8e8c0-7560-4da4-9270-65b7466c5f61" d="M18.0434,23.18783h-6.8445c-2.8394,0-5.1494-2.31-5.1494-5.1494v-6.8448c0-2.8395,2.31-5.1494,5.1494-5.1494h6.8445c2.8394,0,5.1497,2.3099,5.1497,5.1494v6.8448c0,2.8394-2.3103,5.1494-5.1497,5.1494ZM11.1989,7.65713c-1.9502,0-3.5366,1.5863-3.5366,3.5365v6.8448c0,1.9502,1.5864,3.5366,3.5366,3.5366h6.8445c1.9502,0,3.5368-1.5864,3.5368-3.5366v-6.8448c0-1.9502-1.5866-3.5365-3.5368-3.5365h-6.8445Z"/>
  </g>
</svg>