<?xml version="1.0" encoding="UTF-8"?>
<svg id="uuid-c934da13-e2c6-40aa-913c-157bcebb9182" data-name="ELEMENTS" xmlns="http://www.w3.org/2000/svg" width="29.2427" height="29.2428" viewBox="0 0 29.2427 29.2428">
  <defs>
    <style>
      .uuid-f75f6320-e754-4d96-b890-56db17996fda {
        fill: #fff;
      }
    </style>
  </defs>
  <circle cx="14.62137" cy="14.6214" r="14.62139"/>
  <path class="uuid-f75f6320-e754-4d96-b890-56db17996fda" d="M22.4494,12.4953c0-1.939-1.5719-3.511-3.511-3.511H9.9604c-1.9391,0-3.511,1.572-3.511,3.511v4.178c0,1.9391,1.5719,3.511,3.511,3.511h8.978c1.9391,0,3.511-1.5719,3.511-3.511v-4.178Zm-5.2799,2.4021l-4.026,1.9918c-.1578,.0854-.6941-.0289-.6941-.2084v-4.0885c0-.1818,.5407-.2959,.6986-.2059l3.8538,2.0967c.1616,.092,.3312,.3258,.1677,.4143Z"/>
</svg>