<?xml version="1.0" encoding="UTF-8"?>
<svg id="uuid-1e5ed80a-4f71-4016-9322-8d4e6c915597" data-name="ELEMENTS" xmlns="http://www.w3.org/2000/svg" width="29.2427" height="29.2428" viewBox="0 0 29.2427 29.2428">
  <defs>
    <style>
      .uuid-1bf559d7-3cc4-4d17-8bf0-1837bf6274aa {
        fill: #fff;
      }
    </style>
  </defs>
  <circle cx="14.62135" cy="14.5843" r="14.6214"/>
  <path class="uuid-1bf559d7-3cc4-4d17-8bf0-1837bf6274aa" d="M22.69985,9.5744c-.5063,.229-1.0663,.3681-1.61269,.4598,.25939-.0436,.64019-.5131,.793-.703,.23319-.2896,.42629-.6197,.53529-.9761,.0139-.0278,.0242-.0628-.0036-.0839-.035-.0139-.05769-.0067-.0855,.0072-.6099,.3268-1.2408,.5638-1.9121,.7316-.0556,.0139-.0969,0-.1319-.0349-.0556-.0628-.1079-.122-.1671-.1709-.2822-.2401-.5849-.4284-.9263-.5675-.4482-.1827-.9379-.2601-1.4205-.2288-.4697,.0305-.9309,.1629-1.3478,.3807-.4177,.2182-.7904,.5218-1.0872,.888-.307,.3789-.5334,.8263-.64929,1.3005-.11191,.4576-.10271,.9104-.03441,1.373,.0103,.0767,.0035,.0871-.066,.0767-2.6262-.3908-4.803-1.3305-6.5702-3.3442-.0767-.0874-.1183-.0874-.1812,.0067-.7733,1.1591-.3981,3.0213,.5679,3.9365,.1288,.122,.2612,.244,.4038,.3553-.052,.0107-.69489-.059-1.2678-.3553-.0767-.0485-.1152-.0207-.122,.0663-.00709,.1253,.0036,.2405,.0208,.3764,.1484,1.1749,.96211,2.2617,2.0764,2.6857,.1324,.0557,.2786,.1046,.4213,.1288-.2539,.0557-.5154,.0955-1.2435,.0385-.0906-.0174-.1252,.0279-.0906,.1149,.5471,1.4913,1.7282,1.935,2.6126,2.1878,.1184,.0207,.23691,.0207,.3557,.0485-.0072,.0107-.0143,.0107-.0211,.021-.2934,.4473-1.3105,.7802-1.7842,.9457-.8614,.3011-1.7994,.4365-2.7098,.3468-.14569-.0214-.1763-.0198-.2158,0-.04,.0247-.0051,.0595,.0417,.0973,.1848,.122,.3728,.2301,.56441,.3346,.57819,.3065,1.18109,.5505,1.81139,.7246,3.2553,.899,6.9221,.2384,9.3664-2.1901,1.9194-1.9071,2.59221-4.5371,2.59221-7.1704,0-.1031,.12179-.16,.19409-.2144,.4994-.3752,.9022-.8242,1.2747-1.3256,.0837-.1126,.0844-.2128,.0844-.254v-.0138c0-.0421-.0007-.0295-.0655,0Z"/>
</svg>